<svg xmlns="http://www.w3.org/2000/svg" width="14" height="9" fill="none" viewBox="0 0 14 9"><path fill="#cdcdcd" d="M8.51 6.11 3.85 4.77s-.04-.56-.3-.87c-.26-.32-.17-.47-.34-.58a4 4 0 0 0-1.35-.35c-.17.06-.2.23-.28.3S.57 3.79.44 4.77c-.12.92.46 1.69 1.04 1.9s1.3 0 1.65-.32c.36-.32.45-.49.45-.49L8.2 7.2z"/><path fill="#8f8f8f" d="M8.51 6.11s.3.04.15.57-.45.5-.45.5z"/><path fill="#3c3a52" d="M3.19 3.62c-.02.08-.35.06-.73-.05-.39-.1-.67-.26-.65-.35s.35-.06.73.05.67.26.65.35"/><path fill="#3c3a52" d="M2.33 4.71a.19.19 0 1 1-.37-.1.19.19 0 0 1 .37.1"/><path fill="#3c3a52" d="m2.04 6 .11-.38a.22.22 0 1 0-.42-.12l-.11.38a.22.22 0 1 0 .42.12"/><path fill="#ededed" d="M1.58 3.4s-.64.32-.91.9c-.28.58-.14.86-.02.83s.45-.75.66-1.02.43-.5.43-.5z"/><path fill="#ededed" d="M3.14 3.93c.18.14.4 1.04.24 1.17s-.6-.83-.6-1.05c0-.13.2-.25.36-.12"/><path fill="#ededed" d="m4.07 5.08 4.38 1.26-.14.48-4.38-1.25s-.11-.17-.07-.3c.04-.15.2-.2.2-.2"/><path fill="#cdcdcd" d="M5.18 3.16 9.56 1.9c.19-.05.57-.07.6.32.02.39-.12.58-.2.78q-.1.3.35.6c.3.2.74.1.74.1s.2.1.51.05c.4-.08.8-.26.86-.53 0 0 .47-.51.25-1.06-.23-.55-1.5-1.55-2.6-1.43-1.12.12-5.18 1.33-5.18 1.33z"/><path fill="#8f8f8f" d="M5.18 3.16s-.28.04-.41-.43.12-.67.12-.67z"/><path fill="#ededed" d="M10.17 1.4c-.1.15-5.04 1.51-5.04 1.51L5 2.47s5.66-1.8 5.17-1.07"/><path fill="#3c3a52" d="M11.48 2.01c.07.25-.34.34-.4.14s.35-.32.4-.14"/><path fill="#3c3a52" d="M12.29 3.06c.1.36-1.14.79-1.25.38-.12-.4 1.13-.8 1.25-.38"/><path fill="#ededed" d="M12.4 2.85c.07.09.37-.26.15-.55-.21-.29-.32.31-.15.55"/></svg>